# xmcd
#
# Track frame offsets: 
#        150
#        12350
#        21449
#        31867
#        42577
#        52892
#        64685
#        74643
#
# Disc length: 1135 seconds
#
# Revision: 0
# Processed by: cddbd v1.5.2PL0 Copyright (c) Steve Scherf et al.
# Submitted via: ExactAudioCopy v0.99pb4
#
DISCID=6b046d08
DTITLE=Crystal Gayle - Crystal Gayle
DYEAR=1978
DGENRE=Country
TTITLE0=I've Cried (The Blue Right Out of My Eyes)
TTITLE1=Sparklin' Look of Love
TTITLE2=Everybody Oughta Cry
TTITLE3=Mama It's Different This Time
TTITLE4=Touching Me Again
TTITLE5=Shoe Me How
TTITLE6=M.R.S. Degree
TTITLE7=I Hope You're Havin' Better Luck Than Me
EXTD=
EXTT0=
EXTT1=
EXTT2=
EXTT3=
EXTT4=
EXTT5=
EXTT6=
EXTT7=
PLAYORDER=
